<svg xmlns="http://www.w3.org/2000/svg" width="512" height="512" viewBox="0 0 24 24" role="img" aria-label="SpecRow">
  <path fill="#42b883" d="M23 0H1a1 1 0 0 0-1 1v4a1 1 0 0 0 1 1h22a1 1 0 0 0 1-1V1a1 1 0 0 0-1-1z"/>
  <path fill="#8fdcc2" d="M23 9H1a1 1 0 0 0-1 1v4a1 1 0 0 0 1 1h22a1 1 0 0 0 1-1v-4a1 1 0 0 0-1-1zM23 18H1a1 1 0 0 0-1 1v4a1 1 0 0 0 1 1h22a1 1 0 0 0 1-1v-4a1 1 0 0 0-1-1z"/>
  <path fill="#35a574" d="M12 0H1a1 1 0 0 0-1 1v4a1 1 0 0 0 1 1h11z"/>
  <path fill="#74c69d" d="M12 9H1a1 1 0 0 0-1 1v4a1 1 0 0 0 1 1h11zM12 18H1a1 1 0 0 0-1 1v4a1 1 0 0 0 1 1h11z"/>
</svg>
